<svg height="512pt" viewBox="-88 0 512 512.00026" width="512pt" xmlns="http://www.w3.org/2000/svg"><path d="m191.554688 276.449219v-35.121094l-5.832032 1.921875c.597656 3.65625 4.75 13.535156-1.476562 24.3125-5.828125 10.082031-17.582032 14.582031-29.570313 13.097656-4.640625-.574218-9.40625.195313-13.511719 1.863282l49.363282 210.015624c3.207031 13.636719 16.839844 21.960938 30.339844 18.785157 13.5625-3.1875 21.972656-16.773438 18.785156-30.335938zm0 0"/><path d="m90.144531 311.492188c-10.828125-4.132813-20.148437-12.308594-25.453125-23.714844-4.796875-10.3125-5.402344-21.582032-2.53125-31.847656l-46.484375-28.738282c-10.347656 17.710938-11.035156 39.558594-1.054687 58.066406 12.148437 22.539063 34.691406 30.601563 55.269531 30.945313 6.753906.113281 14.382813-1.542969 20.253906-4.710937zm0 0"/><path d="m89.023438 324.707031c-6.828126 2.25-13.898438 3.433594-21.027344 3.5625l-35.914063 152.71875c-3.1875 13.5625 5.222657 27.148438 18.785157 30.335938 13.503906 3.179687 27.136718-5.160157 30.339843-18.785157l46.808594-199.054687c-.191406.289063-.398437.566406-.582031.863281-8.789063 14.320313-22.429688 25.101563-38.410156 30.359375zm0 0"/><path d="m290.773438 212.832031c-4.09375 1.347657-8.464844 1.292969-12.4375-.0625l-41.972657 13.8125c67.980469 8.875 65.226563 8.722657 67.632813 8.722657 9.59375 0 17.929687-7.113282 19.214844-16.878907.730468-5.554687-.980469-10.855469-4.28125-14.859375zm0 0"/><path d="m179.445312 43.578125c0 24.066406-19.511718 43.574219-43.578124 43.574219-24.066407 0-43.574219-19.507813-43.574219-43.574219s19.507812-43.578125 43.574219-43.578125c24.066406 0 43.578124 19.511719 43.578124 43.578125zm0 0"/><path d="m149.753906 208.351562c6.390625-10.789062 20.804688-13.929687 31.25-6.257812-2.015625-14.066406-14.15625-23.652344-27.359375-23.652344-7.996093 0-16.007812 3.582032-21.378906 10.292969-8.589844 10.722656-21.058594 15.589844-33.296875 14.976563l18.316406 11.324218c3.667969 2.269532 6.710938 5.164063 9.085938 8.457032 9.089844-1.027344 17.957031-5.972657 23.382812-15.140626zm0 0"/><path d="m329.515625 172.425781c-34.066406-3.085937-49.109375-4.460937-49.5-4.460937-5.890625 0-10.140625 5.769531-8.273437 11.449218l.171874.519532c-87.863281 28.914062-90.839843 29.902344-90.945312 29.929687-.421875 2.96875-1.292969 5.835938-2.621094 8.480469-2.589844 5.148438-4.222656 10.695312-4.75 16.324219l105.863282-34.839844c1.988281 1.847656 4.867187 2.550781 7.578124 1.660156l44.527344-14.652343c7.707032-2.539063 6.289063-14.113282-2.050781-14.410157zm0 0"/><path d="m176.921875 104.617188h-85.835937c-10.882813 0-21.269532 4.527343-28.675782 12.503906-18.675781 20.109375-53.675781 57.808594-57.3125 61.777344-8.25 9.003906-6.203125 23.242187 4.101563 29.613281l81.109375 50.148437c9.117187 5.636719 21.074218 2.816406 26.710937-6.296875 5.636719-9.117187 2.816407-21.074219-6.300781-26.710937l-61.167969-37.820313 30.632813-33.425781v32.726562c3.570312.6875 7.09375 1.636719 10.546875 2.875 11.734375 4.203126 24.386719 1.027344 32.210937-8.738281 7.808594-9.746093 19.335938-14.769531 30.707032-14.769531 17.089843.003906 32.40625 10.988281 37.679687 27.382812l.226563-.074218v-17.796875l6.898437 15.527343 37.050781-12.195312-22.796875-51.441406c-6.273437-14.15625-20.300781-23.285156-35.785156-23.285156zm0 0"/></svg>